<svg width="26" height="26" viewBox="0 0 26 26" fill="none" xmlns="http://www.w3.org/2000/svg">
<path d="M1.40002 18.1579C0.884559 18.1579 0.466691 18.5758 0.466691 19.0913C0.466691 19.6067 0.884559 20.0246 1.40002 20.0246V18.1579ZM4.98108 9.54178H4.04774H4.98108ZM21.6927 9.54178H22.626H21.6927ZM15.4019 23.866L16.2093 24.3343C16.3768 24.0456 16.3773 23.6894 16.2107 23.4001C16.0441 23.1109 15.7357 22.9326 15.4019 22.9326V23.866ZM11.2718 23.866V22.9326C10.938 22.9326 10.6296 23.1109 10.463 23.4001C10.2964 23.6894 10.297 24.0456 10.4645 24.3343L11.2718 23.866ZM25.2737 18.1579H1.40002V20.0246H25.2737V18.1579ZM1.40002 20.0246C3.89325 20.0246 5.91441 18.0034 5.91441 15.5102H4.04774C4.04774 16.9725 2.86232 18.1579 1.40002 18.1579V20.0246ZM5.91441 15.5102V9.54178H4.04774V15.5102H5.91441ZM5.91441 9.54178C5.91441 5.44247 9.23756 2.11932 13.3369 2.11932V0.252656C8.20663 0.252656 4.04774 4.41154 4.04774 9.54178H5.91441ZM13.3369 2.11932C17.4362 2.11932 20.7593 5.44247 20.7593 9.54178H22.626C22.626 4.41154 18.4671 0.252656 13.3369 0.252656V2.11932ZM20.7593 9.54178V15.5102H22.626V9.54178H20.7593ZM20.7593 15.5102C20.7593 18.0034 22.7805 20.0246 25.2737 20.0246V18.1579C23.8114 18.1579 22.626 16.9725 22.626 15.5102H20.7593ZM14.5946 23.3977C14.3345 23.8461 13.8553 24.1221 13.3369 24.1221V25.9888C14.5208 25.9888 15.6152 25.3584 16.2093 24.3343L14.5946 23.3977ZM13.3369 24.1221C12.8185 24.1221 12.3392 23.8461 12.0791 23.3977L10.4645 24.3343C11.0585 25.3584 12.1529 25.9888 13.3369 25.9888V24.1221ZM11.2718 24.7993H15.4019V22.9326H11.2718V24.7993Z" fill="#8291A9"/>
</svg>
